<svg xmlns="http://www.w3.org/2000/svg" xml:space="preserve" width="800px" height="800px" version="1.1" style="shape-rendering:geometricPrecision; text-rendering:geometricPrecision; image-rendering:optimizeQuality; fill-rule:evenodd; clip-rule:evenodd" viewBox="0 0 800 800" xmlns:xlink="http://www.w3.org/1999/xlink">
 <defs>
  <style type="text/css">
   
    .fil4 {fill:#333333}
    .fil2 {fill:#98B7C7}
    .fil1 {fill:#BCE2F6}
    .fil0 {fill:#EBEBEB}
    .fil3 {fill:#FFE600}
   
  </style>
 </defs>
 <g id="Layer_x0020_1">
  <metadata id="CorelCorpID_0Corel-Layer"></metadata>
  <path class="fil0" d="M400 0c289,0 400,111 400,400 0,289 -111,400 -400,400 -289,0 -400,-111 -400,-400 0,-289 111,-400 400,-400z" id="id_101" style="fill: rgb(255, 255, 255);"></path>
  <g id="_606440312">
   <g>
    <path class="fil1" d="M212 457l0 -244c0,-38 31,-69 69,-69l197 0 16 0c-1,0 -2,0 -3,1 -3,1 -6,5 -6,8l0 63c0,17 14,31 31,31l62 0 1 0c4,0 8,-4 9,-8l0 15 0 203 -376 0z" id="id_102"></path>
    <path class="fil2" d="M579 247c0,0 0,0 -1,0l-62 0c-17,0 -31,-14 -31,-31l0 -63 0 -9 9 0c3,0 5,1 7,3l83 83c3,2 4,4 4,7 0,1 0,1 0,2l0 8 -9 0z" id="id_103"></path>
   </g>
   <path class="fil3" d="M594 656l-388 0c-24,0 -43,-19 -43,-43l0 -113c0,-24 19,-43 43,-43l388 0c24,0 43,19 43,43l0 113c0,24 -19,43 -43,43z" id="id_104"></path>
   <path class="fil4" d="M520 421l-240 0c-4,0 -7,-3 -7,-7 0,-3 3,-6 7,-6l240 0c4,0 7,3 7,6 0,4 -3,7 -7,7zm0 -52l-240 0c-4,0 -7,-3 -7,-7 0,-4 3,-7 7,-7l240 0c4,0 7,3 7,7 0,4 -3,7 -7,7zm0 -53l-240 0c-4,0 -7,-3 -7,-6 0,-4 3,-7 7,-7l240 0c4,0 7,3 7,7 0,3 -3,6 -7,6zm-62 -86l-27 -28c-3,-2 -3,-7 0,-9 2,-3 7,-3 9,0l32 32c2,1 2,3 2,5 0,1 0,3 -2,4l-32 33c-1,1 -3,2 -5,2 -1,0 -3,-1 -4,-2 -3,-3 -3,-7 0,-10l27 -27zm-117 0l27 27c3,3 3,7 0,10 -1,1 -3,2 -4,2 -2,0 -4,-1 -5,-2l-32 -33c-2,-1 -2,-3 -2,-4 0,-2 0,-4 2,-5l32 -32c2,-3 7,-3 9,0 3,2 3,7 0,9l-27 28zm50 40c-1,0 -1,0 -2,0 -4,-1 -6,-5 -5,-9l18 -65c1,-3 4,-5 8,-4 4,1 6,4 5,8l-18 65c0,3 -3,5 -6,5z" id="id_105"></path>
  </g>
  <path class="fil4" d="M501 600l54 0c4,0 7,3 7,7 0,4 -3,7 -7,7l-61 0c-3,0 -6,-3 -6,-7l0 -98c0,-4 3,-7 6,-7 4,0 7,3 7,7l0 91zm-224 14c-18,0 -39,-12 -39,-32 0,-3 3,-6 7,-6 3,0 6,3 6,6 0,12 16,18 26,18 10,0 25,-6 25,-18 0,-3 -1,-6 -2,-8 -5,-6 -18,-8 -25,-9 -18,-4 -37,-8 -37,-32 0,-20 21,-31 39,-31 18,0 39,11 39,31 0,4 -3,7 -7,7 -4,0 -7,-3 -7,-7 0,-11 -15,-17 -25,-17 -10,0 -26,6 -26,17 0,3 1,6 3,9 4,6 17,8 24,9 19,4 38,8 38,31 0,20 -21,32 -39,32zm164 -24l11 12c3,2 3,7 0,9 -1,2 -3,2 -5,2 -1,0 -3,0 -4,-2l-11 -10c-9,9 -21,13 -34,13 -32,0 -52,-25 -52,-56 0,-14 4,-27 13,-38 10,-12 23,-18 39,-18 15,0 29,6 39,18 9,11 13,24 13,38 0,11 -3,23 -9,32zm-18 1l-8 -7c-3,-3 -3,-7 0,-10 3,-2 7,-2 10,0l6 7c4,-7 5,-15 5,-23 0,-23 -14,-42 -38,-42 -24,0 -39,19 -39,42 0,10 4,21 10,29 7,9 18,13 29,13 9,0 18,-3 25,-9z" id="id_106"></path>
 </g>
</svg>